<svg width="34" height="35" viewBox="0 0 34 35" fill="none" xmlns="http://www.w3.org/2000/svg">
<path fill-rule="evenodd" clip-rule="evenodd" d="M16.9231 34.7692C26.2694 34.7692 33.8462 27.1925 33.8462 17.8462C33.8462 8.4998 26.2694 0.92308 16.9231 0.92308C7.57672 0.92308 0 8.4998 0 17.8462C0 27.1925 7.57672 34.7692 16.9231 34.7692ZM13.8182 21.572C13.8182 21.572 12.2528 20.4508 11.4701 18.4835C10.6874 16.5162 10.6874 14.5278 10.6874 14.5278C10.6874 14.5278 10.6874 11.2066 12.5489 8.94315C14.4105 6.67969 16.7586 6.80662 16.7586 6.80662C16.7586 6.80662 19.0432 6.63739 20.9047 8.94315C22.7663 11.2489 22.7663 14.5278 22.7663 14.5278C22.7663 14.5278 22.7239 16.622 21.9624 18.4835C21.2009 20.3451 19.6143 21.572 19.6143 21.572L25.7701 24.0258C25.7701 24.0258 27.3989 24.8932 27.3566 26.797C27.3143 28.7008 25.7701 28.8912 25.7701 28.8912H8.10664C8.10664 28.8912 6.62587 28.5739 6.5201 26.797C6.41433 25.0201 8.10664 24.0258 8.10664 24.0258L13.8182 21.572Z" fill="#414952"/>
</svg>
